<svg height="390pt" preserveAspectRatio="xMidYMid meet" viewBox="0 0 721 390" width="721pt" xmlns="http://www.w3.org/2000/svg"><g transform="matrix(.1 0 0 -.1 0 390)"><path d="m95 3815c-33-24-60-46-60-49 0-4 31-48 68-99 37-50 82-115 100-144 18-28 56-87 85-129l53-78-34-70c-67-139-87-192-107-285-11-51-25-101-30-111-8-16 0-22 63-48l72-31 16 32c9 18 24 73 34 122 9 50 26 108 37 129 11 22 26 55 32 74l12 34 55-72c29-40 68-89 84-110 17-20 55-71 87-111 31-41 72-92 91-114l36-40 56 56 57 56-72 89c-39 49-80 100-90 114-11 14-38 49-62 78-70 87-138 185-138 199 0 8 17 32 38 56 21 23 53 64 71 90 36 53 186 207 201 207 6 0-6 32-25 70-19 39-39 70-44 70-10 0-81-56-143-112-20-18-61-67-92-108-55-74-96-120-106-120-5 0-62 85-120 178-32 53-77 117-107 152-7 8-23 27-35 42l-23 27z"/><path d="m1730 3493c-36-24-48-41-77-103-28-61-82-241-87-292-6-62-19-118-26-118-11 0-57 100-79 174-14 45-21 96-21 151 0 45-3 96-6 112l-6 30-49-18c-27-11-54-19-59-19-6 0-10 18-10 40v40h-64c-35 0-96-7-136-16-132-30-173-94-200-305-17-143 8-224 93-293 53-43 123-67 213-73 58-5 77-2 112 16 22 11 49 31 59 44l17 24 71-60 70-59 54 6c30 4 60 11 67 17 25 20 43 95 48 197 3 64 13 124 25 160 11 31 27 83 36 115 8 31 20 57 24 57 12 0 47-109 61-190 7-36 9-92 5-127-3-34-3-82 0-107 8-50 3-47 118-60l47-6v88c0 97 31 286 54 330 8 16 26 36 39 45 23 15 24 15 42-21 46-95 56-145 55-254l-1-108h81 80v28c0 61 31 229 50 266 13 26 34 49 61 64l41 24 38-27c89-62 114-124 124-314 3-67 36-194 54-213 4-3 39 7 78 24l71 31-22 56c-15 39-24 89-28 162-11 181-57 287-156 363-72 56-98 66-163 66-58 0-142-37-185-82l-26-27-28 44c-44 70-126 100-207 77-12-4-44-26-72-50l-49-42-22 49c-29 68-73 101-136 101-29 0-58-7-73-17zm-456-220c7-66 9-246 3-282-5-35-27-42-92-27-40 10-67 24-89 45-29 30-31 36-30 104 0 39 6 97 14 127 7 30 11 57 9 59-8 9 78 29 128 30l51 1z"/><path d="m1920 2661c-20-16-54-66-80-115-25-47-47-86-50-86s-16 21-29 46c-68 126-201 160-294 75-46-42-48-47-73-226-3-22-10-67-15-100s-9-97-9-142c0-46-4-83-9-83-28 0-62 46-82 113-24 77-24 98-14 310l7 137-63 2c-167 5-193 3-242-21-66-32-157-119-186-176-52-104-49-278 6-358 35-50 127-133 177-159 81-42 192-5 211 69l6 25 36-35c38-37 120-67 185-67 30 0 78 27 118 67 3 2 8 75 12 161 10 228 30 372 51 372 23 0 89-117 110-195 10-39 11-85 5-204-5-85-5-158-1-161 8-7 122-40 136-40 13 0 37 59 37 91 0 17 7 68 15 113 8 44 24 135 36 201 21 117 62 226 73 195 33-94 48-168 51-250 2-52 5-106 8-120 2-14 8-55 11-92l7-67 52-6c29-4 68-5 87-3 35 3 35 3 52 78 51 216 70 282 102 354 32 69 38 76 52 65 26-21 124-258 124-299 0-24 51-150 61-150 8 0 127 56 136 64 2 2-6 25-16 52-11 27-34 96-52 154-33 105-84 220-121 273-26 36-88 67-136 67-86 0-151-53-193-157-12-30-25-51-29-46-4 4-18 44-31 88-44 156-75 196-159 209-40 6-49 3-80-23zm-838-298c3-71-17-227-39-312l-9-34-63 59c-59 56-64 63-68 111-8 80 3 120 50 170 43 47 92 83 114 83 8 0 13-25 15-77z"/><path d="m147 2639c-64-45-64-37-4-107 15-19 40-52 54-75s39-58 54-77c16-19 45-57 64-83l36-48-22-37c-13-20-41-57-64-82-59-65-90-108-123-172l-30-57 60-45c42-31 65-43 73-36 6 5 24 33 38 63 15 29 56 86 92 126 36 41 65 78 65 83 0 21 22-1 77-78 110-155 144-195 156-187 7 4 35 24 64 46l52 39-36 51c-19 29-40 57-47 62-6 6-20 23-30 40-11 16-23 34-28 40-5 5-29 38-53 71l-44 62 71 93c39 52 97 126 129 165l57 71-58 58-58 57-28-37c-16-20-44-56-63-79-19-22-59-74-89-115l-55-75-21 27c-20 25-44 58-153 207-27 36-55 66-63 67s-41-16-73-38z"/><path d="m3000 1994c-19-13-53-33-75-44-63-30-296-86-460-109-82-12-178-26-211-31-34-6-167-17-295-25-129-8-297-20-374-25-77-6-196-15-265-20-401-29-560-42-690-55-80-9-182-18-228-22-45-3-82-9-82-14 0-4-16-13-35-19s-35-15-35-19c0-7-51-30-105-47-39-12-47-49-13-60 13-4 215-7 450-8 234-1 426-2 425-2-1-1-38-11-82-23-97-27-208-88-267-148-48-49-50-37 25-147 57-83 85-84 209-5 47 30 75 39 448 137 107 29 216 59 242 67 25 8 102 26 170 40 67 14 143 32 168 40s106 26 180 40c124 24 361 78 620 141 58 14 146 35 195 45 180 39 194 42 205 49 9 6 0 45-35 149-25 77-47 141-48 141-1-1-18-12-37-26z"/></g></svg>